<?xml version="1.0" encoding="UTF-8"?>
<svg version="1.2" baseProfile="tiny" xmlns="http://www.w3.org/2000/svg" width="1024" height="1024">
<path d="M0 0 C337.92 0 675.84 0 1024 0 C1024 337.92 1024 675.84 1024 1024 C686.08 1024 348.16 1024 0 1024 C0 686.08 0 348.16 0 0 Z " fill="#FCFCFD" transform="translate(0,0)"/>
<path d="M0 0 C8.94694647 1.59374354 16.74779052 7.16046685 24.1640625 12.1796875 C25.48330848 13.06588914 26.80264731 13.95195257 28.12207031 14.83789062 C28.79258423 15.28922363 29.46309814 15.74055664 30.15393066 16.20556641 C33.41505851 18.39628971 36.68846662 20.56846249 39.9609375 22.7421875 C41.24748309 23.59817616 42.5339415 24.45429587 43.8203125 25.31054688 C45.76586285 26.60552296 47.7116455 27.90014191 49.65820312 29.19360352 C51.59318643 30.47952528 53.52715112 31.7669667 55.4609375 33.0546875 C56.03396606 33.43498611 56.60699463 33.81528473 57.1973877 34.20710754 C59.50878707 35.74793497 61.80941561 37.28830559 64.03100586 38.95687866 C67.91179055 41.93739086 67.91179055 41.93739086 72.6796875 42.62890625 C75.25749568 42.11334461 77.75338903 41.40548117 80.28515625 40.6953125 C98.16810311 35.683407 115.83663074 34.02677273 134.3671875 34.19140625 C135.29691376 34.19572662 136.22664001 34.200047 137.18453979 34.20449829 C157.44696102 34.3144116 177.20745319 35.36742925 196.66796875 41.48046875 C198.40626953 42.01800781 198.40626953 42.01800781 200.1796875 42.56640625 C200.944021 42.83404785 201.70835449 43.10168945 202.49584961 43.37744141 C206.35942951 43.64947005 208.60453468 41.81772418 211.6328125 39.67578125 C212.24572647 39.26006866 212.85864044 38.84435608 213.49012756 38.41604614 C215.47941695 37.06275964 217.45410633 35.68960667 219.4296875 34.31640625 C220.79727576 33.38259757 222.16601456 32.45047169 223.53588867 31.52001953 C226.22313341 29.69334931 228.90614304 27.86075414 231.58544922 26.02246094 C241.32658921 19.350395 251.27333926 13.02368902 261.4296875 7.00390625 C262.48603394 6.37621338 262.48603394 6.37621338 263.5637207 5.73583984 C270.72171176 1.55025705 276.72534256 -0.80869805 285.1796875 0.56640625 C291.92146661 5.62274058 292.55908948 14.39539758 293.734375 22.29443359 C295.10517285 32.84338284 295.53625075 43.24850863 295.4921875 53.87890625 C295.49202637 54.68224396 295.49186523 55.48558167 295.49169922 56.31326294 C295.47633828 67.35324835 294.9659121 78.04148343 292.8359375 88.90625 C291.56019879 95.13586876 291.56019879 95.13586876 293.6484375 100.84765625 C294.31875 101.57984375 294.9890625 102.31203125 295.6796875 103.06640625 C320.50888161 132.37011943 325.62851737 173.68323993 322.67578125 210.54296875 C321.49872838 222.96960377 319.55226697 234.85096176 315.1796875 246.56640625 C314.83333252 247.50081543 314.83333252 247.50081543 314.47998047 248.45410156 C303.05513047 278.52776169 278.96131392 298.85184586 250.55078125 312.31640625 C241.29265867 316.45411467 231.81466021 319.26219449 221.953125 321.55859375 C221.24140137 321.7272998 220.52967773 321.89600586 219.79638672 322.06982422 C218.42838223 322.39076091 217.0576776 322.70048766 215.68408203 322.99658203 C210.27352082 324.25623479 206.05536048 326.43201975 202.3671875 330.62890625 C200.46316382 333.7354712 200.05153503 336.31474855 200.02146912 339.87541199 C200.00678589 341.19420601 200.00678589 341.19420601 199.99180603 342.53964233 C199.98605057 343.50133331 199.9802951 344.46302429 199.97436523 345.45385742 C199.96446564 346.46866684 199.95456604 347.48347626 199.94436646 348.52903748 C199.91273541 351.88912611 199.88798759 355.24922889 199.86328125 358.609375 C199.84271312 360.93679678 199.82171668 363.26421482 199.80030823 365.59162903 C199.74507308 371.72200488 199.69567012 377.85241453 199.64746094 383.98284912 C199.59725649 390.2366436 199.5415649 396.49038892 199.48632812 402.74414062 C199.37872888 415.01818718 199.27728779 427.2922764 199.1796875 439.56640625 C193.8996875 439.56640625 188.6196875 439.56640625 183.1796875 439.56640625 C182.8496875 415.47640625 182.5196875 391.38640625 182.1796875 366.56640625 C158.51196555 377.95068202 158.51196555 377.95068202 136.1796875 393.56640625 C136.05747225 395.00824918 136.00195992 396.45583769 135.97436523 397.90258789 C135.95442001 398.82346695 135.93447479 399.74434601 135.91392517 400.69313049 C135.89721268 401.69416306 135.88050018 402.69519562 135.86328125 403.7265625 C135.8321096 405.25596718 135.8321096 405.25596718 135.80030823 406.81626892 C135.73469898 410.08707673 135.67587516 413.35796762 135.6171875 416.62890625 C135.57401308 418.84050353 135.53039916 421.05209228 135.48632812 423.26367188 C135.37900605 428.69783061 135.27777105 434.13207323 135.1796875 439.56640625 C130.5596875 439.56640625 125.9396875 439.56640625 121.1796875 439.56640625 C121.0806957 432.27071071 121.0081589 424.97540748 120.95996094 417.67919922 C120.93986509 415.19801014 120.91258366 412.7168683 120.87792969 410.23583984 C120.82932456 406.66622243 120.80669778 403.09723209 120.7890625 399.52734375 C120.76841736 398.42087494 120.74777222 397.31440613 120.72650146 396.17440796 C120.72475482 390.15831749 120.86435743 386.16117532 125.1796875 381.56640625 C127.90869141 379.52709961 127.90869141 379.52709961 131.03125 377.71875 C131.59735992 377.38560287 132.16346985 377.05245575 132.74673462 376.70921326 C133.94498388 376.00594301 135.14672076 375.30858496 136.35168457 374.61688232 C138.14733806 373.58499611 139.93188498 372.53624875 141.71386719 371.48095703 C144.09653227 370.07137637 146.48380209 368.67023711 148.87597656 367.27685547 C151.38693807 365.81382115 153.89066539 364.33935679 156.38964844 362.85595703 C166.92642436 356.61609328 166.92642436 356.61609328 172.359375 353.9921875 C176.02354446 352.1832199 179.24919128 350.48241896 182.1796875 347.56640625 C183.26707263 343.63949317 183.37214084 340.3511915 183.24609375 336.28515625 C183.09642234 327.90355747 186.9436766 321.23480533 191.91015625 314.734375 C198.18225545 308.74295494 205.26285492 305.48553849 213.3671875 302.69140625 C226.45367421 297.92641188 237.65953194 291.85224753 248.1796875 282.56640625 C248.79070312 282.04949219 249.40171875 281.53257812 250.03125 281 C264.37533737 267.93312589 271.76464164 247.49049278 273.1796875 228.56640625 C274.48965263 206.58653167 274.48965263 206.58653167 269.1796875 185.56640625 C268.89528809 184.91929687 268.61088867 184.2721875 268.31787109 183.60546875 C264.55812582 175.19052146 260.38121095 167.45698786 254.1796875 160.56640625 C253.6846875 159.96828125 253.1896875 159.37015625 252.6796875 158.75390625 C245.21636962 150.39499022 233.96678394 145.01067342 223.1796875 142.56640625 C222.56295166 142.39584717 221.94621582 142.22528809 221.31079102 142.04956055 C209.48158127 139.3676948 195.71965641 141.630554 183.86328125 143.05859375 C169.45079824 144.65973504 155.17168394 145.02684492 140.66845703 144.95751953 C136.68096747 144.94141142 132.69449095 144.95750245 128.70703125 144.9765625 C113.05952326 144.98772699 97.82933971 144.08853345 82.30102539 142.24609375 C62.7709086 139.95200885 44.52278378 142.73941141 28.73828125 155.1484375 C14.0774902 167.55009823 6.32028854 185.32343903 4.37597656 204.18798828 C2.18844978 230.69406524 6.86548445 255.11066163 23.33984375 276.3515625 C36.84389743 292.20840956 55.2586464 300.36998806 75.109375 305.29296875 C85.8500421 308.00044993 96.30337044 313.16461368 102.59765625 322.71875 C105.04135947 327.45618187 106.30622296 331.75819816 106.29994202 337.10955811 C106.30200401 338.46827782 106.30200401 338.46827782 106.30410767 339.85444641 C106.30051239 340.84059433 106.29691711 341.82674225 106.29321289 342.84277344 C106.29335892 343.88698959 106.29350494 344.93120575 106.2936554 346.00706482 C106.29295863 349.45915808 106.28517723 352.91119741 106.27734375 356.36328125 C106.27547873 358.75653046 106.27405522 361.14978006 106.27305603 363.54302979 C106.26923746 369.84276381 106.25941277 376.14247479 106.24835205 382.44219971 C106.23812377 388.87031747 106.23355537 395.29843895 106.22851562 401.7265625 C106.21778994 414.33985551 106.20019844 426.95312536 106.1796875 439.56640625 C95.2896875 439.56640625 84.3996875 439.56640625 73.1796875 439.56640625 C73.1796875 425.04640625 73.1796875 410.52640625 73.1796875 395.56640625 C70.2096875 396.22640625 67.2396875 396.88640625 64.1796875 397.56640625 C45.64240631 399.4752796 28.37308731 395.47133241 13.25390625 384.4296875 C4.03931032 376.44752586 -2.81407849 366.64701745 -9.6953125 356.69140625 C-22.69944566 336.73968012 -22.69944566 336.73968012 -42.8203125 325.56640625 C-44.86166271 325.45621191 -46.90337733 325.35266974 -48.9453125 325.25390625 C-54.45228606 324.85079032 -54.45228606 324.85079032 -57.5703125 322.44140625 C-59.14613219 318.81702096 -59.38955403 316.47994176 -58.8203125 312.56640625 C-56.46004757 309.36318956 -54.6435713 308.29045703 -50.8203125 307.56640625 C-38.56971578 306.45602527 -28.32906844 309.80252304 -18.8203125 317.56640625 C-13.05197261 322.90171213 -7.67182709 328.5715897 -2.55859375 334.5390625 C0.94103128 338.62064765 4.54920268 342.60128544 8.1796875 346.56640625 C8.82808594 347.2934375 9.47648437 348.02046875 10.14453125 348.76953125 C17.60238732 356.7611807 27.33093499 362.30568479 38.4140625 362.90234375 C47.29229163 363.0787776 55.16511384 362.86552036 63.1796875 358.56640625 C63.79199219 358.23898437 64.40429688 357.9115625 65.03515625 357.57421875 C70.17701325 354.09553031 71.90138107 348.34406245 73.1796875 342.56640625 C74.23771873 335.01735484 74.23771873 335.01735484 72.12792969 328.04785156 C69.24682299 325.85705514 66.00781468 325.07977882 62.57421875 324.11328125 C61.43891975 323.77831635 61.43891975 323.77831635 60.28068542 323.43658447 C57.05893171 322.48613666 53.83100774 321.55758743 50.6027832 320.62939453 C17.29480904 311.00090556 -13.73955232 293.89665502 -31.05859375 262.6328125 C-48.35443417 229.96866809 -51.2871869 186.15598547 -41.8203125 150.56640625 C-41.63307617 149.84308105 -41.44583984 149.11975586 -41.25292969 148.37451172 C-37.01428336 132.4484753 -30.34639566 113.94098428 -18.36157227 102.12866211 C-16.3878464 100.15832928 -14.8743214 98.49535926 -14.70800781 95.63476562 C-15.0240876 93.18321995 -15.50030493 90.79815122 -16.0078125 88.37890625 C-18.03293284 76.45476405 -18.15200911 64.69352224 -18.1328125 52.62890625 C-18.13558197 51.70896881 -18.13835144 50.78903137 -18.14120483 49.84121704 C-18.22315362 12.46050737 -18.22315362 12.46050737 -9.9921875 2.3125 C-6.66297332 -0.36404449 -4.15681171 -0.1709034 0 0 Z " fill="#151515" transform="translate(184.8203125,222.43359375)"/>
<path d="M0 0 C6.27 0 12.54 0 19 0 C19 40.59 19 81.18 19 123 C12.73 123 6.46 123 0 123 C-0.33 119.7 -0.66 116.4 -1 113 C-2.010625 113.9075 -3.02125 114.815 -4.0625 115.75 C-14.00599268 124.21594558 -24.29241525 125.91405251 -37.02978516 125.19091797 C-48.91854549 124.03887205 -57.98791656 117.16182631 -65.43359375 108.23046875 C-74.28602208 95.62514063 -75.65881138 80.44320662 -73.5 65.55078125 C-71.07256539 54.77904018 -65.67316792 44.70985717 -56.50390625 38.23828125 C-45.21298112 31.30937771 -33.08737836 28.77950791 -19.89453125 31.68359375 C-12.88138028 34.06747158 -6.26320327 37.73679673 -1 43 C-0.67 28.81 -0.34 14.62 0 0 Z " fill="#161616" transform="translate(916,674)"/>
<path d="M0 0 C5.94 0 11.88 0 18 0 C18 40.59 18 81.18 18 123 C12.06 123 6.12 123 0 123 C-0.33 119.7 -0.66 116.4 -1 113 C-2.7015625 114.60875 -2.7015625 114.60875 -4.4375 116.25 C-13.99092562 124.61771677 -24.75840461 125.74964529 -37.02441406 125.17919922 C-48.74582242 124.11598694 -57.51811312 116.33899348 -64.94921875 107.85546875 C-73.05394803 96.57059808 -74.12412987 82.44667608 -73 69 C-70.7282063 56.87511248 -64.83684218 45.64360283 -55 38 C-43.90925042 31.38016378 -32.49244822 28.8593009 -19.625 31.75 C-12.81040475 34.09986043 -7.24745673 37.01491611 -2 42 C-2 42.66 -2 43.32 -2 44 C-1.34 44 -0.68 44 0 44 C0 29.48 0 14.96 0 0 Z " fill="#141414" transform="translate(177,674)"/>
<path d="M0 0 C3.96262735 2.80686104 7.32744251 5.91255913 10 10 C10.37769531 9.56429687 10.75539063 9.12859375 11.14453125 8.6796875 C17.5147272 1.78734434 25.59304101 -3.50777771 35.1015625 -4.23828125 C46.26014394 -4.47332897 53.65120102 -2.46335234 62.2109375 4.73046875 C68.91211193 13.23130356 68.53262757 22.32569421 68.390625 32.62890625 C68.38315213 34.23029367 68.37746415 35.83169032 68.37347412 37.43309021 C68.35829986 41.62047167 68.31909067 45.80728624 68.2746582 49.9944458 C68.23352678 54.27812027 68.21542519 58.56188754 68.1953125 62.84570312 C68.15258674 71.23075618 68.08230593 79.61524196 68 88 C61.73 88 55.46 88 49 88 C48.98541748 86.0926709 48.97083496 84.1853418 48.95581055 82.22021484 C48.9040837 75.90570955 48.83877752 69.59145785 48.76428509 63.27718163 C48.71963123 59.45027157 48.68036445 55.62346675 48.65356445 51.79638672 C48.62748125 48.10034241 48.58704424 44.40470413 48.53681374 40.7089119 C48.52017875 39.30163259 48.50864352 37.89428311 48.50238609 36.4869194 C48.49270919 34.50988299 48.46292214 32.53297641 48.43237305 30.55615234 C48.42126999 29.43252289 48.41016693 28.30889343 48.39872742 27.1512146 C47.86510768 22.93392171 46.57748925 19.33479859 43.2734375 16.5390625 C37.41168242 13.71673598 32.10065122 12.64279331 25.79296875 14.73046875 C20.72519605 17.03400179 17.3194586 19.69590058 15.19694519 25.01095581 C12.89240773 32.05752492 12.52922395 38.63006074 12.48828125 46.0078125 C12.46135445 47.81776199 12.46135445 47.81776199 12.43388367 49.66427612 C12.38008775 53.48448281 12.34598299 57.30456676 12.3125 61.125 C12.2792999 63.72918363 12.24480778 66.33335113 12.20898438 68.9375 C12.12437866 75.29157767 12.057421 81.64562088 12 88 C6.06 88 0.12 88 -6 88 C-6.01401855 85.2455957 -6.01401855 85.2455957 -6.02832031 82.43554688 C-6.06395036 76.3445249 -6.11781302 70.25387359 -6.18390274 64.16310883 C-6.22328476 60.47297987 -6.25551814 56.78308622 -6.27099609 53.09277344 C-6.28622464 49.52630417 -6.32077753 45.96048219 -6.36830902 42.39430237 C-6.3902009 40.38271962 -6.3924684 38.37095392 -6.39434814 36.35925293 C-6.50917693 29.13430541 -6.99498318 24.09707955 -11 18 C-15.60704967 14.4295365 -20.05361767 13.63233011 -25.84375 13.71875 C-30.82860279 14.36894819 -34.71317224 16.7827305 -38.3125 20.1875 C-43.08734629 28.14557714 -43.46230528 36.0156844 -43.51171875 45.12890625 C-43.52966995 46.35915024 -43.54762115 47.58939423 -43.56611633 48.85691833 C-43.61998948 52.75874477 -43.65404217 56.66045047 -43.6875 60.5625 C-43.71908115 63.21944648 -43.7551846 65.87630776 -43.79101562 68.53320312 C-43.87570318 75.022048 -43.94262446 81.51085848 -44 88 C-49.94 88 -55.88 88 -62 88 C-62 58.3 -62 28.6 -62 -2 C-55.73 -2 -49.46 -2 -43 -2 C-42.67 0.97 -42.34 3.94 -42 7 C-41.3709375 6.45730469 -40.741875 5.91460938 -40.09375 5.35546875 C-28.21970737 -4.5693711 -14.34962264 -8.35353032 0 0 Z " fill="#141314" transform="translate(525,709)"/>
<path d="M0 0 C5.25460753 2.95300258 9.84369627 7.40971419 11.92578125 13.1875 C13.45598364 20.6745617 13.31635762 28.46283863 9.765625 35.32421875 C5.99330661 40.71474615 1.43283298 43.99175731 -4.63671875 46.328125 C-4.73833164 52.91164941 -4.80827345 59.49497077 -4.85644531 66.07910156 C-4.87653191 68.31778521 -4.90380655 70.55641658 -4.93847656 72.79492188 C-4.98712339 76.01705849 -5.00971749 79.23850001 -5.02734375 82.4609375 C-5.04798889 83.45803741 -5.06863403 84.45513733 -5.08990479 85.48245239 C-5.09214083 92.44334861 -3.71244197 96.03560883 1.11938477 101.20800781 C6.46970956 105.85770343 12.19855065 109.49290488 18.30078125 113.078125 C20.33320479 114.2923086 22.36444353 115.50847749 24.39453125 116.7265625 C25.39613281 117.32694336 26.39773438 117.92732422 27.4296875 118.54589844 C34.17812329 122.64573043 40.7580931 127.00260356 47.36328125 131.328125 C47.69328125 118.458125 48.02328125 105.588125 48.36328125 92.328125 C46.38328125 91.668125 44.40328125 91.008125 42.36328125 90.328125 C35.95157629 87.21176266 32.30451956 83.54334139 29.140625 77.18359375 C28.36328125 74.328125 28.36328125 74.328125 28.36328125 65.328125 C46.18328125 65.328125 64.00328125 65.328125 82.36328125 65.328125 C82.36328125 74.10684456 81.82662618 79.28866392 76.02734375 85.90625 C72.49350772 88.92577187 67.11364241 92.328125 62.36328125 92.328125 C62.36328125 120.048125 62.36328125 147.768125 62.36328125 176.328125 C55.43328125 179.793125 55.43328125 179.793125 48.36328125 183.328125 C48.4303125 180.9665625 48.49734375 178.605 48.56640625 176.171875 C48.5904492 173.8614178 48.59379963 171.55178002 48.59521484 169.24121094 C48.60715419 167.64650209 48.64031043 166.05179565 48.69580078 164.45800781 C49.20368868 154.88697232 49.20368868 154.88697232 44.98754883 146.71508789 C41.87274901 144.6485211 38.71040195 142.98756352 35.36328125 141.328125 C33.54134283 140.11168013 31.74180858 138.86086595 29.96875 137.57421875 C29.08687012 136.95466309 28.20499023 136.33510742 27.29638672 135.69677734 C26.39033691 135.05949707 25.48428711 134.4222168 24.55078125 133.765625 C15.4601972 127.38576467 6.23413995 121.25917365 -3.18676758 115.37670898 C-11.47534536 110.09947295 -16.84592908 104.88515882 -19.20774841 94.91841125 C-19.62948966 92.37177702 -19.75719512 90.02485733 -19.75024414 87.44604492 C-19.75016861 86.50544724 -19.75009308 85.56484955 -19.75001526 84.5957489 C-19.74485397 83.5934877 -19.73969269 82.5912265 -19.734375 81.55859375 C-19.73296005 80.52245438 -19.7315451 79.486315 -19.73008728 78.41877747 C-19.72450117 75.11769696 -19.71195117 71.81668492 -19.69921875 68.515625 C-19.69420196 66.27408952 -19.68963936 64.03255298 -19.68554688 61.79101562 C-19.67453628 56.30336216 -19.65781193 50.81574847 -19.63671875 45.328125 C-20.58522705 45.02938477 -21.53373535 44.73064453 -22.51098633 44.42285156 C-28.14317075 42.45028928 -31.54157305 38.18987269 -34.51171875 33.140625 C-37.26660776 26.25340248 -37.8602779 19.58960491 -34.94921875 12.640625 C-27.99702951 -1.26375348 -14.29540078 -6.31398728 0 0 Z " fill="#141414" transform="translate(268.63671875,402.671875)"/>
<path d="M0 0 C0.74064697 0.00563965 1.48129395 0.0112793 2.24438477 0.01708984 C13.8141372 0.26874161 25.41350116 2.57720884 33.71875 11.234375 C39.84351308 18.9803989 42.00860572 26.84569579 41.98852539 36.68505859 C41.98841209 38.54630875 41.98841209 38.54630875 41.98829651 40.44515991 C41.98319113 41.78375286 41.97797515 43.12234539 41.97265625 44.4609375 C41.97078906 45.84241688 41.96936658 47.22389692 41.96836853 48.6053772 C41.96456702 52.22538103 41.95475716 55.84534417 41.94366455 59.46533203 C41.93339935 63.16568451 41.92886 66.86604361 41.92382812 70.56640625 C41.91313257 77.81512479 41.89555516 85.06380149 41.875 92.3125 C35.275 92.3125 28.675 92.3125 21.875 92.3125 C21.38 87.8575 21.38 87.8575 20.875 83.3125 C19.76125 84.22 18.6475 85.1275 17.5 86.0625 C7.39191662 93.65702801 -3.75492045 95.21697894 -16.125 94.3125 C-24.85084942 92.63532375 -31.34585001 87.97577369 -37.125 81.3125 C-40.19414294 76.47296057 -40.64068472 72.50585286 -40.5625 66.9375 C-40.55420166 66.18235107 -40.54590332 65.42720215 -40.53735352 64.64916992 C-40.3685536 59.10159976 -39.77555237 54.6953488 -36.125 50.3125 C-35.67382812 49.76464844 -35.22265625 49.21679688 -34.7578125 48.65234375 C-26.22551556 40.01392371 -11.59728506 39.34943694 -0.125 37.6875 C1.94813264 37.3826987 4.02067234 37.07489032 6.09228516 36.75991821 C7.94980846 36.47803848 9.80885083 36.20622192 11.66796875 35.93505859 C14.65326575 35.35554372 17.15081846 34.65529241 19.875 33.3125 C21.30162219 30.45925563 21.18533868 28.47795451 20.875 25.3125 C18.62415464 21.2797354 15.88794458 19.25478783 11.48046875 17.82421875 C4.28994236 16.41198643 -4.17938939 15.65343533 -10.8125 19.25 C-14.97807235 22.39006107 -16.40263641 26.50423499 -18.125 31.3125 C-24.395 31.3125 -30.665 31.3125 -37.125 31.3125 C-35.59751208 20.62008453 -31.62026822 13.10871457 -23.125 6.3125 C-16.0277398 1.76158506 -8.40410907 -0.06758043 0 0 Z " fill="#141414" transform="translate(405.125,704.6875)"/>
<path d="M0 0 C7.77101985 5.08105144 12.19307538 11.26569952 14.625 20.25 C15.14437784 25.39640462 15.09376571 30.50109915 15.015625 35.6640625 C15.00814822 37.12949851 15.0024621 38.59494463 14.99847412 40.06039429 C14.98333044 43.88446521 14.94414927 47.70791126 14.8996582 51.53173828 C14.85845934 55.44685416 14.84041102 59.36207276 14.8203125 63.27734375 C14.777641 70.93521131 14.70738708 78.59243786 14.625 86.25 C8.355 86.25 2.085 86.25 -4.375 86.25 C-4.87 81.795 -4.87 81.795 -5.375 77.25 C-5.94605469 77.70890625 -6.51710938 78.1678125 -7.10546875 78.640625 C-18.13924789 86.99051191 -29.62508947 89.67758634 -43.375 88.25 C-52.03395417 86.57156344 -58.74329431 82.00594545 -64.375 75.25 C-67.02610796 70.26662556 -67.8981097 65.89719553 -67.8125 60.3125 C-67.80347656 59.60883301 -67.79445313 58.90516602 -67.78515625 58.18017578 C-67.56214373 51.50064104 -66.36749725 47.38219614 -61.78515625 42.5859375 C-52.79710365 34.871034 -39.88251295 33.61128053 -28.5625 32.1875 C-17.6629995 30.86183502 -17.6629995 30.86183502 -7.375 27.25 C-5.09608285 24.4519983 -5.09608285 24.4519983 -5.4375 21.375 C-6.61799897 17.44000343 -8.21483882 15.83558642 -11.375 13.25 C-18.30734464 9.66430449 -28.70560327 9.90091764 -36.16015625 12.0546875 C-42.18483433 15.32040085 -42.048437 18.27031099 -44.375 25.25 C-51.305 25.25 -58.235 25.25 -65.375 25.25 C-62.07185743 14.23952476 -58.06785512 4.47288643 -47.62109375 -1.26171875 C-32.7154223 -8.1885887 -14.53596628 -8.06595162 0 0 Z " fill="#141414" transform="translate(810.375,710.75)"/>
<path d="M0 0 C7.08800048 6.37298289 11.65846674 16.1416363 13.03125 25.4765625 C13.03125 30.7565625 13.03125 36.0365625 13.03125 41.4765625 C-9.07875 41.4765625 -31.18875 41.4765625 -53.96875 41.4765625 C-51.66450662 54.35354657 -51.66450662 54.35354657 -43.80859375 63.00390625 C-36.85565002 66.98173935 -30.50237334 67.55652699 -22.70703125 66.03515625 C-17.26350163 64.38654442 -14.16788194 61.07047169 -10.96875 56.4765625 C-10.63875 55.8165625 -10.30875 55.1565625 -9.96875 54.4765625 C-2.70875 54.4765625 4.55125 54.4765625 12.03125 54.4765625 C7.11875285 66.75780538 1.18738586 74.56164491 -10.6484375 80.58203125 C-21.99022557 84.95453877 -36.34150039 85.66495415 -47.5859375 80.73046875 C-60.48753572 73.94126707 -67.84393918 65.09513957 -72.71484375 51.375 C-76.68111093 37.20585241 -74.25312568 21.75416927 -67.15625 9.1015625 C-60.72102009 -0.73401111 -51.62126166 -7.57326 -39.953125 -10.203125 C-24.60285108 -11.85066749 -12.29144719 -9.5112389 0 0 Z " fill="#141415" transform="translate(717.96875,715.5234375)"/>
<path d="M0 0 C8.96415474 6.99960784 12.69292008 16.02558656 15.40625 26.87890625 C15.40625 32.48890625 15.40625 38.09890625 15.40625 43.87890625 C-6.70375 43.87890625 -28.81375 43.87890625 -51.59375 43.87890625 C-48.39436468 57.47200599 -48.39436468 57.47200599 -39.55859375 66.1796875 C-32.42300329 69.84186885 -25.42033841 69.86954102 -17.78125 67.75390625 C-12.10731176 65.64873482 -9.88036708 61.80883188 -6.59375 56.87890625 C-4.43896484 56.53833008 -4.43896484 56.53833008 -1.8046875 56.5859375 C-0.86367188 56.59560547 0.07734375 56.60527344 1.046875 56.61523438 C2.03171875 56.64037109 3.0165625 56.66550781 4.03125 56.69140625 C5.52011719 56.71170898 5.52011719 56.71170898 7.0390625 56.73242188 C9.49533072 56.76784882 11.95052285 56.81724429 14.40625 56.87890625 C12.69542939 66.23346713 7.14565932 73.49974233 -0.59375 78.87890625 C-12.5120838 86.01472394 -25.39193087 87.74020812 -38.9765625 85.26171875 C-49.58262169 82.13251591 -58.17742116 75.83206834 -64.16015625 66.53515625 C-71.05844239 53.75359065 -72.95216439 38.10046122 -69.46875 23.94140625 C-65.58177752 12.15393622 -59.34072627 2.6941948 -48.23242188 -3.11425781 C-32.39389176 -11.03352287 -14.77306814 -10.16709718 0 0 Z " fill="#141415" transform="translate(337.59375,713.12109375)"/>
<path d="M0 0 C7.24943498 6.87239581 9.1355269 15.67141328 9.4375 25.25 C9.32483877 34.36429385 6.76741433 41.92848992 0.1875 48.4375 C-7.58013484 53.87214729 -14.44085725 55.11622622 -23.8125 54.4375 C-30.86508704 53.17359551 -36.16768034 48.71321052 -40.8125 43.4375 C-45.8968509 35.04273382 -47.31837785 25.12323479 -45.1640625 15.55859375 C-42.52797962 7.4588348 -38.34498328 1.04546286 -30.6875 -3 C-20.74095129 -7.32541486 -8.79439919 -6.74874546 0 0 Z " fill="#FBFBFB" transform="translate(906.8125,727.5625)"/>
<path d="M0 0 C6.67641734 3.3803122 10.70446752 7.99998953 13.4765625 14.88671875 C16.50698534 24.57722343 16.0691455 34.7381807 12.16796875 44.09765625 C8.58450504 50.64674511 3.53678144 55.23434976 -3.5703125 57.58984375 C-11.72273483 59.42026673 -19.6838471 58.51201501 -26.83203125 54.09765625 C-32.87838305 48.86365444 -37.03439602 42.94175515 -38.13012695 34.91357422 C-38.26821901 32.65284544 -38.29994836 30.42478264 -38.26953125 28.16015625 C-38.26195801 27.36891357 -38.25438477 26.5776709 -38.24658203 25.76245117 C-38.07875118 19.82160638 -37.27026912 15.07349118 -33.83203125 10.09765625 C-33.39632812 9.45570313 -32.960625 8.81375 -32.51171875 8.15234375 C-24.74881941 -1.98608762 -11.67721545 -4.44354216 0 0 Z " fill="#FBFBFB" transform="translate(161.83203125,723.90234375)"/>
<path d="M0 0 C6.27 0 12.54 0 19 0 C19 40.59 19 81.18 19 123 C12.73 123 6.46 123 0 123 C0 82.41 0 41.82 0 0 Z " fill="#121212" transform="translate(609,674)"/>
<path d="M0 0 C0 5.94 0 11.88 0 18 C-2.454375 18.20625 -4.90875 18.4125 -7.4375 18.625 C-14.42507087 19.40351229 -19.91416148 20.83438362 -25 26 C-25.48799072 26.48898773 -25.97598145 26.97797546 -26.47875977 27.48178101 C-31.89056971 33.64356346 -31.86463931 39.30263428 -31.8046875 47.25 C-31.81839386 48.50385498 -31.83210022 49.75770996 -31.84622192 51.04956055 C-31.877137 54.35755144 -31.88266089 57.66426567 -31.87554932 60.97235107 C-31.87463209 64.35803517 -31.9075557 67.74337935 -31.9375 71.12890625 C-31.98928807 77.75281315 -32.00443465 84.37590178 -32 91 C-38.27 91 -44.54 91 -51 91 C-51 61.3 -51 31.6 -51 1 C-44.73 1 -38.46 1 -32 1 C-31.67 5.29 -31.34 9.58 -31 14 C-29.96875 12.7625 -28.9375 11.525 -27.875 10.25 C-19.61431029 0.84245397 -12.03927643 -0.26753948 0 0 Z " fill="#141415" transform="translate(263,706)"/>
<path d="M0 0 C0.51881399 8.64689989 0.32333286 14.94827954 -5.4375 21.6796875 C-11.47843733 27.51732405 -19.39192931 30.15483062 -27.6875 30.5 C-32.7439066 30.29745439 -36.94847678 29.09597529 -41 26 C-44.43901272 22.26644221 -44.57324107 19.3263149 -44.4140625 14.40625 C-43.76460161 10.63202443 -42.04865708 9.18708008 -39 7 C-33.15581873 3.32211327 -26.76734276 2.77140072 -20.0625 1.8125 C-18.90814453 1.63525391 -17.75378906 1.45800781 -16.56445312 1.27539062 C-10.99373037 0.44761254 -5.63282891 -0.23777589 0 0 Z " fill="#FAFAFA" transform="translate(806,753)"/>
<path d="M0 0 C0.75625691 15.14614534 0.75625691 15.14614534 -4 21 C-10.65009444 27.76280791 -17.40950611 30.92113843 -26.875 31.25 C-32.76164356 31.17992091 -36.48906274 29.71800971 -41.375 26.375 C-43.81984132 22.80177038 -44.20700325 19.28573387 -44 15 C-42.56180721 11.69215658 -40.71401337 9.34726539 -38 7 C-30.2141266 3.94095825 -21.60261403 3.00443732 -13.375 1.8125 C-11.60189453 1.54663086 -11.60189453 1.54663086 -9.79296875 1.27539062 C-1.23455598 0 -1.23455598 0 0 0 Z " fill="#F9F9FA" transform="translate(427,752)"/>
<path d="M0 0 C4.76203208 3.02399084 8.03112172 7.32087166 10.2890625 12.42578125 C10.8515625 15.17578125 10.8515625 15.17578125 10.8515625 19.17578125 C-4.3284375 19.17578125 -19.5084375 19.17578125 -35.1484375 19.17578125 C-32.16672513 10.23064414 -29.57901745 4.4631843 -21.3984375 -0.32421875 C-14.74139193 -3.22700025 -6.62819744 -2.8776742 0 0 Z " fill="#FBFBFB" transform="translate(322.1484375,722.82421875)"/>
<path d="M0 0 C4.2063067 3.44152366 6.6990141 7.14236311 9 12 C9 13.98 9 15.96 9 18 C-6.18 18 -21.36 18 -37 18 C-30.74877405 2.37193512 -30.74877405 2.37193512 -22.1875 -1.4375 C-14.46239127 -4.12449434 -7.25521585 -3.96172971 0 0 Z " fill="#FBFBFC" transform="translate(701,724)"/>
<path d="M0 0 C0.33 0 0.66 0 1 0 C1 34.65 1 69.3 1 105 C-4.28 105 -9.56 105 -15 105 C-15.33 80.91 -15.66 56.82 -16 32 C-19.63 33.98 -23.26 35.96 -27 38 C-27.66 37.67 -28.32 37.34 -29 37 C-26.7136988 35.63597957 -24.42178251 34.28365726 -22.125 32.9375 C-21.47402344 32.54755859 -20.82304687 32.15761719 -20.15234375 31.75585938 C-18.46934275 30.77555467 -16.73703801 29.88101568 -15 29 C-14.34 29.33 -13.68 29.66 -13 30 C-13 54.09 -13 78.18 -13 103 C-9.04 103 -5.08 103 -1 103 C-1.00222061 101.75385422 -1.00444122 100.50770844 -1.00672913 99.22380066 C-1.02697641 87.49596832 -1.04197982 75.76813952 -1.05181217 64.04029369 C-1.05703695 58.01049765 -1.06412729 51.98071568 -1.07543945 45.95092773 C-1.08628266 40.13489455 -1.0922799 34.31887493 -1.09487724 28.50283241 C-1.09672889 26.28081359 -1.10034456 24.05879553 -1.10573006 21.83678246 C-1.11295945 18.73125971 -1.11399013 15.62579344 -1.11352539 12.52026367 C-1.11712067 11.59597565 -1.12071594 10.67168762 -1.12442017 9.71939087 C-1.1230455 8.87385147 -1.12167084 8.02831207 -1.12025452 7.15715027 C-1.12117631 6.42248126 -1.1220981 5.68781225 -1.12304783 4.93088055 C-1 3 -1 3 0 0 Z " fill="#040404" transform="translate(383,557)"/>
<path d="M0 0 C6.27 0 12.54 0 19 0 C19 4.62 19 9.24 19 14 C18.01 14.495 18.01 14.495 17 15 C17 10.38 17 5.76 17 1 C12.05 1 7.1 1 2 1 C2 29.71 2 58.42 2 88 C6.95 88 11.9 88 17 88 C16.98428955 86.34959717 16.9685791 84.69919434 16.95239258 82.9987793 C16.89817957 76.88798891 16.86368113 70.77721986 16.83520508 64.66625977 C16.8200988 62.01908801 16.7996127 59.37194136 16.77368164 56.72485352 C16.73738009 52.92457899 16.72029197 49.12463474 16.70703125 45.32421875 C16.69154739 44.13664474 16.67606354 42.94907074 16.66011047 41.72550964 C16.65988388 40.62459488 16.65965729 39.52368011 16.65942383 38.3894043 C16.65276199 37.41899704 16.64610016 36.44858978 16.63923645 35.44877625 C17 33 17 33 20 30 C19.67 49.8 19.34 69.6 19 90 C12.73 90 6.46 90 0 90 C0 60.3 0 30.6 0 0 Z " fill="#060606" transform="translate(212,707)"/>
<path d="M0 0 C0.99 0.33 1.98 0.66 3 1 C3 40.27 3 79.54 3 120 C7.95 120 12.9 120 18 120 C18.33 120.99 18.66 121.98 19 123 C12.73 123 6.46 123 0 123 C0 82.41 0 41.82 0 0 Z " fill="#4D4E4E" transform="translate(609,674)"/>
<path d="M0 0 C2 2 2 2 2.24050903 4.5942688 C2.2338472 6.23974197 2.2338472 6.23974197 2.22705078 7.91845703 C2.22689972 9.15959259 2.22674866 10.40072815 2.22659302 11.67947388 C2.216379 13.0389217 2.205947 14.3983679 2.1953125 15.7578125 C2.19158284 17.14500729 2.18873565 18.53220471 2.18673706 19.91940308 C2.17909684 23.57240051 2.15944516 27.22523917 2.1373291 30.87817383 C2.11687896 34.60495862 2.10773713 38.33176904 2.09765625 42.05859375 C2.07619948 49.37247663 2.04101434 56.68619585 2 64 C-4.6 64 -11.2 64 -18 64 C-18 55 -18 55 -16 53 C-16 55.64 -16 58.28 -16 61 C-11.05 61 -6.1 61 -1 61 C-1.00785522 58.28148804 -1.00785522 58.28148804 -1.01586914 55.50805664 C-1.03196724 49.5329495 -1.04347249 43.55784847 -1.05181217 37.58272648 C-1.05704002 33.9585404 -1.06413587 30.3343777 -1.07543945 26.71020508 C-1.08627184 23.21540025 -1.09227758 19.72061796 -1.09487724 16.22579765 C-1.09763551 14.23760611 -1.10544688 12.24942369 -1.11329651 10.26124573 C-1.11337204 9.06007614 -1.11344757 7.85890656 -1.11352539 6.62133789 C-1.115746 5.55766495 -1.11796661 4.493992 -1.12025452 3.39808655 C-1 1 -1 1 0 0 Z " fill="#202021" transform="translate(445,733)"/>
<path d="M0 0 C3 3 3 3 3.36076355 5.56266785 C3.35410172 6.58636978 3.34743988 7.61007172 3.34057617 8.66479492 C3.34034958 9.82577194 3.34012299 10.98674896 3.33988953 12.1829071 C3.32440567 13.43610245 3.30892181 14.68929779 3.29296875 15.98046875 C3.28872391 17.26359451 3.28447906 18.54672028 3.28010559 19.86872864 C3.26866162 23.27686138 3.23919896 26.6846094 3.20599365 30.09259033 C3.17528272 33.57143957 3.16159811 37.05035109 3.14648438 40.52929688 C3.11432828 47.35303838 3.06156434 54.1764611 3 61 C7.95 61 12.9 61 18 61 C18 61.99 18 62.98 18 64 C12.06 64 6.12 64 0 64 C0 42.88 0 21.76 0 0 Z " fill="#222122" transform="translate(574,733)"/>
<path d="M0 0 C2 2 2 2 2.24050903 4.5942688 C2.23606781 5.69125092 2.23162659 6.78823303 2.22705078 7.91845703 C2.22689972 9.15959259 2.22674866 10.40072815 2.22659302 11.67947388 C2.216379 13.0389217 2.205947 14.3983679 2.1953125 15.7578125 C2.19158284 17.14500729 2.18873565 18.53220471 2.18673706 19.91940308 C2.17909684 23.57240051 2.15944516 27.22523917 2.1373291 30.87817383 C2.11687896 34.60495862 2.10773713 38.33176904 2.09765625 42.05859375 C2.07619951 49.37246825 2.04205903 56.68621189 2 64 C1.01 63.67 0.02 63.34 -1 63 C-0.67 42.21 -0.34 21.42 0 0 Z " fill="#393939" transform="translate(445,733)"/>
<path d="M0 0 C0.33 0 0.66 0 1 0 C1 19.47 1 38.94 1 59 C5.95 59 10.9 59 16 59 C16 55.7 16 52.4 16 49 C16.33 49 16.66 49 17 49 C17 53.29 17 57.58 17 62 C11.06 62 5.12 62 -1 62 C-0.67 41.54 -0.34 21.08 0 0 Z " fill="#1F1F20" transform="translate(520,735)"/>
<path d="M0 0 C0.99 0 1.98 0 3 0 C3.05472088 1.39538254 3.09311538 2.79140897 3.125 4.1875 C3.14820313 4.96480469 3.17140625 5.74210938 3.1953125 6.54296875 C3 9 3 9 1 14 C-20.45 14 -41.9 14 -64 14 C-64 13.67 -64 13.34 -64 13 C-42.88 13 -21.76 13 0 13 C0 8.71 0 4.42 0 0 Z " fill="#222122" transform="translate(728,741)"/>
<path d="M0 0 C0.66 0 1.32 0 2 0 C2 2.64 2 5.28 2 8 C6.95 8 11.9 8 17 8 C17 8.99 17 9.98 17 11 C11.39 11 5.78 11 0 11 C0 7.37 0 3.74 0 0 Z " fill="#212121" transform="translate(177,786)"/>
<path d="M0 0 C2.55729696 3.83594544 2.29474578 6.99648099 2.25 11.4375 C2.25773437 12.20126953 2.26546875 12.96503906 2.2734375 13.75195312 C2.25955435 17.73988685 2.10098542 20.51172267 0 24 C-0.38749213 26.32495277 -0.72982839 28.65851268 -1 31 C-1.33 31 -1.66 31 -2 31 C-2.1391722 23.88868736 -1.73492545 16.94617463 -1 9.875 C-0.85691406 8.44027344 -0.85691406 8.44027344 -0.7109375 6.9765625 C-0.4783375 4.65056246 -0.24130321 2.32511041 0 0 Z " fill="#202020" transform="translate(478,275)"/>
<path d="M0 0 C2.62538284 0.14053872 5.25017427 0.28718947 7.875 0.4375 C8.99455078 0.49647461 8.99455078 0.49647461 10.13671875 0.55664062 C15.7734375 0.88671875 15.7734375 0.88671875 18 2 C19.99960012 2.039992 22.00047242 2.04346799 24 2 C24 2.33 24 2.66 24 3 C15.42516209 4.91581964 8.01587506 4.62983021 0 1 C0 0.67 0 0.34 0 0 Z " fill="#1B1B1C" transform="translate(215,585)"/>
<path d="M0 0 C0.33 0.66 0.66 1.32 1 2 C-0.134375 1.979375 -1.26875 1.95875 -2.4375 1.9375 C-5.81575674 1.58422523 -5.81575674 1.58422523 -7 3 C-9.9375 3.1875 -9.9375 3.1875 -13 3 C-13.66 2.34 -14.32 1.68 -15 1 C-13.25215171 0.63536268 -11.50159498 0.2836922 -9.75 -0.0625 C-8.28820312 -0.35833984 -8.28820312 -0.35833984 -6.796875 -0.66015625 C-4.11254926 -0.98632432 -2.49306573 -1.00065712 0 0 Z " fill="#1E1E1E" transform="translate(778,745)"/>
<path d="M0 0 C0.33 0 0.66 0 1 0 C1.33 2.97 1.66 5.94 2 9 C2.66 8.34 3.32 7.68 4 7 C4.99 7.33 5.98 7.66 7 8 C6.34 8.66 5.68 9.32 5 10 C4.01 11.485 4.01 11.485 3 13 C1.68 13 0.36 13 -1 13 C-0.67 8.71 -0.34 4.42 0 0 Z " fill="#2F2E2F" transform="translate(481,707)"/>
<path d="M0 0 C2.97 0 5.94 0 9 0 C9 0.66 9 1.32 9 2 C12.63 2 16.26 2 20 2 C20 2.33 20 2.66 20 3 C17.41603321 3.08112454 14.83462432 3.14054748 12.25 3.1875 C11.52039063 3.21263672 10.79078125 3.23777344 10.0390625 3.26367188 C6.65513396 3.30981636 4.42141443 3.25324128 1.484375 1.48828125 C0.99453125 0.99714844 0.5046875 0.50601563 0 0 Z " fill="#1B1B1B" transform="translate(397,705)"/>
<path d="M0 0 C-1.625 1.5625 -1.625 1.5625 -4 3 C-7.25 2.6875 -7.25 2.6875 -10 2 C-10 2.66 -10 3.32 -10 4 C-11.9375 3.625 -11.9375 3.625 -14 3 C-14.33 2.34 -14.66 1.68 -15 1 C-9.92928099 0.28832014 -5.11791642 -0.10662326 0 0 Z " fill="#202021" transform="translate(416,742)"/>
<path d="M0 0 C0.99 0.33 1.98 0.66 3 1 C3.33 4.96 3.66 8.92 4 13 C3.01 13 2.02 13 1 13 C1.33 10.69 1.66 8.38 2 6 C1.34 6 0.68 6 0 6 C0 4.02 0 2.04 0 0 Z " fill="#232324" transform="translate(186,448)"/>
<path d="M0 0 C1.32 0 2.64 0 4 0 C4 0.66 4 1.32 4 2 C7.465 1.505 7.465 1.505 11 1 C10.67 1.99 10.34 2.98 10 4 C8.741875 3.87625 7.48375 3.7525 6.1875 3.625 C5.12595703 3.52058594 5.12595703 3.52058594 4.04296875 3.4140625 C2 3 2 3 -1 1 C-0.67 0.67 -0.34 0.34 0 0 Z " fill="#1E1E1E" transform="translate(673,795)"/>
<path d="M0 0 C2.0625 0.4375 2.0625 0.4375 4 1 C4 1.66 4 2.32 4 3 C2.37675914 3.22162329 0.751279 3.42689803 -0.875 3.625 C-2.23238281 3.79902344 -2.23238281 3.79902344 -3.6171875 3.9765625 C-4.40351562 3.98429688 -5.18984375 3.99203125 -6 4 C-6.66 3.34 -7.32 2.68 -8 2 C-7.67 1.67 -7.34 1.34 -7 1 C-5 1 -3 1 -1 1 C-0.67 0.67 -0.34 0.34 0 0 Z " fill="#202020" transform="translate(790,752)"/>
<path d="M0 0 C0 4.95 0 9.9 0 15 C-0.33 15 -0.66 15 -1 15 C-1 12.69 -1 10.38 -1 8 C-1.66 8 -2.32 8 -3 8 C-3 5.69 -3 3.38 -3 1 C-1 0 -1 0 0 0 Z " fill="#1C1C1D" transform="translate(371,554)"/>
<path d="M0 0 C1.2065625 0.0309375 1.2065625 0.0309375 2.4375 0.0625 C2.4375 0.7225 2.4375 1.3825 2.4375 2.0625 C4.4175 2.0625 6.3975 2.0625 8.4375 2.0625 C8.7675 2.7225 9.0975 3.3825 9.4375 4.0625 C7.83254433 3.94807539 6.22851881 3.82055306 4.625 3.6875 C3.73167969 3.61789062 2.83835938 3.54828125 1.91796875 3.4765625 C-0.5625 3.0625 -0.5625 3.0625 -3.5625 1.0625 C-2.5625 0.0625 -2.5625 0.0625 0 0 Z " fill="#1B1B1B" transform="translate(134.5625,794.9375)"/>
<path d="M0 0 C1.9078584 3.1749094 2.1609041 5.10585211 1.625 8.75 C1.51414062 9.54921875 1.40328125 10.3484375 1.2890625 11.171875 C1.19367188 11.77515625 1.09828125 12.3784375 1 13 C0.34 12.34 -0.32 11.68 -1 11 C-0.9765625 8.3984375 -0.9765625 8.3984375 -0.625 5.375 C-0.51414062 4.37210938 -0.40328125 3.36921875 -0.2890625 2.3359375 C-0.19367188 1.56507813 -0.09828125 0.79421875 0 0 Z " fill="#1F1F1F" transform="translate(105,738)"/>
<path d="M0 0 C0.33 0.66 0.66 1.32 1 2 C1.66 2 2.32 2 3 2 C3 5.3 3 8.6 3 12 C2.01 11.34 1.02 10.68 0 10 C-0.29296875 7.6171875 -0.29296875 7.6171875 -0.1875 4.875 C-0.16042969 3.96492187 -0.13335937 3.05484375 -0.10546875 2.1171875 C-0.07066406 1.41851563 -0.03585937 0.71984375 0 0 Z " fill="#CACACA" transform="translate(362,765)"/>
<path d="M0 0 C0.33 0 0.66 0 1 0 C1.33 5.28 1.66 10.56 2 16 C1.34 16.33 0.68 16.66 0 17 C-1.23104155 13.31599416 -0.90767252 10.08525024 -0.5625 6.25 C-0.46066406 5.07953125 -0.35882813 3.9090625 -0.25390625 2.703125 C-0.17011719 1.81109375 -0.08632812 0.9190625 0 0 Z " fill="#1D1D1E" transform="translate(234,419)"/>
<path d="M0 0 C1.09651823 3.41139003 0.94215473 6.20655581 0.5625 9.75 C0.40974609 11.22726562 0.40974609 11.22726562 0.25390625 12.734375 C0.12822266 13.85585938 0.12822266 13.85585938 0 15 C-0.33 15 -0.66 15 -1 15 C-1.33 10.38 -1.66 5.76 -2 1 C-1.34 0.67 -0.68 0.34 0 0 Z " fill="#1C1B1C" transform="translate(845,736)"/>
<path d="M0 0 C2.97 0 5.94 0 9 0 C9 0.99 9 1.98 9 3 C5.625 3.1875 5.625 3.1875 2 3 C1.34 2.01 0.68 1.02 0 0 Z " fill="#1E1E1E" transform="translate(278,363)"/>
<path d="M0 0 C2.01822917 0.06510417 4.03645833 0.13020833 6.0546875 0.1953125 C5.0646875 0.6903125 5.0646875 0.6903125 4.0546875 1.1953125 C4.0546875 1.8553125 4.0546875 2.5153125 4.0546875 3.1953125 C1.4146875 2.8653125 -1.2253125 2.5353125 -3.9453125 2.1953125 C-1.9453125 0.1953125 -1.9453125 0.1953125 0 0 Z " fill="#1B1B1C" transform="translate(269.9453125,361.8046875)"/>
<path d="M0 0 C2.08954032 4.17908064 2.16552619 4.80410573 1 9 C0.34 9 -0.32 9 -1 9 C-0.67 6.03 -0.34 3.06 0 0 Z " fill="#1C1C1D" transform="translate(459,447)"/>
</svg>
